<svg width="194" height="70" viewBox="0 0 194 70" fill="none" xmlns="http://www.w3.org/2000/svg">
<g clip-path="url(#clip0_661_171)">
<path fill-rule="evenodd" clip-rule="evenodd" d="M121.171 3.50089L122.467 0.0783691H21.9823L3.94731 47.7176L1.98726 52.8946L0.0390625 58.0416H100.523L119.077 9.03254L121.171 3.50089Z" fill="#EBECF3"/>
<path d="M42.7765 5.23352C50.5584 5.23078 56.5205 7.94237 54.1878 17.0114C52.553 23.367 47.9614 27.8669 41.4343 28.4392C46.7002 29.2231 48.8106 31.6503 47.3044 37.5055C44.9716 46.5745 36.4152 52.8599 27.7221 52.8627L10.3359 52.8681L28.3345 5.23716C28.3345 5.23716 42.7765 5.23261 42.7765 5.23352ZM26.6697 42.5113C27.0023 42.5823 27.3522 42.5823 27.703 42.5823C30.7875 42.5823 33.9476 40.6528 34.8106 37.2968C35.545 34.4403 33.5777 33.3702 31.1237 33.3711C30.7729 33.3711 30.474 33.4432 30.1241 33.4432C30.1241 33.4432 26.6697 42.5122 26.6697 42.5113ZM33.7435 23.7297C34.0059 23.8008 34.2857 23.8008 34.5663 23.8008C37.4404 23.8008 40.3681 22.2286 41.1764 19.0868C41.8379 16.5156 40.482 15.5166 38.1684 15.5175C37.7474 15.5175 37.2572 15.5175 36.818 15.5895L33.7426 23.7307L33.7435 23.7297Z" fill="#202020"/>
<path d="M81.0435 16.4326L70.3876 16.4363L67.7651 23.3633L77.3694 23.3606L73.2643 34.1441L63.7302 34.1468L60.9455 41.4303L71.6013 41.4266L67.3304 52.8527L44.1953 52.86L62.1938 5.22897L85.329 5.22168C85.329 5.22168 81.0435 16.4335 81.0435 16.4326Z" fill="#202020"/>
<path d="M109.942 16.6376L103.071 16.6395L89.413 52.8444L77.0039 52.8481L90.6623 16.6431L83.7916 16.6449L88.1327 5.2189L114.282 5.21069L109.941 16.6367L109.942 16.6376Z" fill="#202020"/>
<path fill-rule="evenodd" clip-rule="evenodd" d="M191.338 18.879L193.523 13.1104L193.945 11.9929H117.953L98.2958 63.916L96.1626 69.5506L96.0195 69.9289H172.011L191.338 18.879Z" fill="#64E15F"/>
<path d="M133.781 44.6122L126.147 64.7499L113.738 64.7536L121.372 44.6158L120.31 17.1262L133.28 17.1226C133.013 21.9779 132.797 26.9053 132.09 31.8317C135.199 26.8324 138.621 21.9761 141.973 17.1199L154.872 17.1162L133.78 44.6122H133.781Z" fill="#202020"/>
<path d="M155.033 64.7418L156.384 58.6724L148.042 58.6751L144.727 64.7454L131.828 64.7491L160.904 17.1144L176.116 17.1099L167.863 64.7381L155.033 64.7418ZM161.672 36.75C162.37 34.0366 163.226 31.2511 163.994 28.5377C162.864 30.7517 161.856 33.0367 160.656 35.2506C158.255 39.6785 155.995 44.1063 153.524 48.5333L158.781 48.5315C159.189 46.6748 159.596 44.8182 160.073 42.9616C160.073 42.9616 161.672 36.7491 161.672 36.75Z" fill="#202020"/>
</g>
<defs>
<clipPath id="clip0_661_171">
<rect width="194" height="70" fill="white"/>
</clipPath>
</defs>
</svg>
